<svg width="303" height="303" xmlns="http://www.w3.org/2000/svg">
 <g>
  <title>Layer 1</title>
  <g id="svg_1">
   <path d="m138.5,295.93c-24.25,-1.72 -49.9,-11.29 -71.3,-26.61c-13.06,-9.36 -30.02,-27.31 -38.17,-40.42c-26.39,-42.43 -29.16,-97.08 -7.12,-140.97c34.34,-68.4 113.1,-98.45 184.28,-70.3c18.33,7.25 35.98,19.43 50.97,35.18c22.98,24.15 36.13,53.83 38.88,87.76c6.48,79.71 -53.3,149.62 -132.9,155.45c-6.95,0.51 -12.87,0.87 -13.14,0.8c-0.27,-0.06 -5.45,-0.46 -11.5,-0.89zm43.5,-11.26c45.98,-10.83 82.46,-43.21 98.29,-87.25c5.42,-15.08 7.2,-26.4 7.13,-45.42c-0.09,-24.58 -3.58,-40.13 -13.6,-60.47c-17.42,-35.35 -50.9,-62.3 -89.32,-71.89c-16.59,-4.14 -43.17,-4.64 -60,-1.13c-47.51,9.91 -87,45.1 -101.99,90.91c-5.29,16.14 -6.86,28.01 -6.21,46.93c0.8,23.31 4.19,36.95 14.23,57.15c6.82,13.71 15.7,25.64 27.4,36.77c19.77,18.82 43.44,30.84 70.57,35.85c14.4,2.66 38.85,2 53.5,-1.45zm-44.25,-10.22c-6.01,-8.29 -5.99,-8.3 -7.23,0.8c-0.65,4.84 -1.06,5.33 -3.27,3.92c-1,-0.63 -0.94,-3.01 0.27,-11.67c0.84,-5.99 1.68,-11.03 1.86,-11.22c0.19,-0.18 2.98,3.17 6.22,7.44l5.88,7.78l0.85,-6.25c0.7,-5.19 1.17,-6.25 2.76,-6.25c1.1,0 1.91,0.69 1.91,1.64c0,3.67 -2.37,19.92 -3.01,20.66c-0.38,0.44 -3.19,-2.64 -6.24,-6.85zm16.45,5.88c-10.84,-5.35 -6.51,-22.33 5.7,-22.33c4.2,0 8.25,2.03 7.85,3.93c-0.32,1.54 -0.96,1.58 -7,0.39c-6.09,-1.21 -10.42,5.56 -7.35,11.49c2.25,4.35 7.18,5.58 10.95,2.73c2.05,-1.56 4.65,-1.02 4.65,0.95c0,1.59 -5.98,4.52 -9.15,4.49c-1.29,-0.02 -3.84,-0.76 -5.65,-1.65zm16.87,-10.73c-1.22,-5.8 -1.97,-10.95 -1.66,-11.46c0.31,-0.5 2.26,-1.22 4.33,-1.59c2.07,-0.38 4.77,-0.93 6.01,-1.23c1.77,-0.42 2.25,-0.11 2.25,1.48c0,1.58 -0.88,2.17 -4,2.7c-3.5,0.59 -4,1.01 -3.98,3.34c0.02,4.29 1.25,5.39 5.19,4.65c2.68,-0.5 3.65,-0.29 4.11,0.9c0.45,1.16 -0.41,1.83 -3.36,2.62c-2.51,0.68 -3.96,1.65 -3.96,2.66c0,1.33 0.82,1.48 5,0.92c4.48,-0.59 5,-0.46 5,1.25c0,1.47 -0.97,2.06 -4.25,2.58c-2.34,0.37 -5.2,0.91 -6.35,1.2c-1.95,0.48 -2.28,-0.28 -4.33,-10.02zm-52.59,7.38c-1.01,-1.65 4.64,-21.98 6.11,-21.98c2.47,0 2.44,1.94 -0.19,12.44c-2.49,9.95 -4.08,12.5 -5.92,9.54zm-13.73,-4.05c-2.06,-1.09 -3.75,-2.43 -3.75,-2.99c0,-1.84 2.88,-2.14 5.18,-0.53c5.89,4.13 8.15,0.37 3.27,-5.47c-3.95,-4.73 -4.36,-8.03 -1.35,-11.04c2.38,-2.38 6.1,-2.12 10.41,0.7c1.95,1.28 2.27,1.96 1.41,3c-0.94,1.12 -1.62,1.09 -4.11,-0.2c-2.98,-1.54 -5.81,-1.31 -5.81,0.47c0,0.52 1.57,2.83 3.5,5.13c3.96,4.74 4.42,8.08 1.5,11c-2.5,2.5 -5.43,2.48 -10.25,-0.07zm94.25,-6.18c2.96,-10.27 3.1,-11.42 1.54,-12.72c-2.06,-1.7 -4.87,-0.9 -6.03,1.73c-1.32,3.01 -3.51,2.85 -3.51,-0.26c0,-3.23 3.3,-6.5 6.57,-6.5c6.38,0 8.9,4.57 6.88,12.5c-0.7,2.75 -1.15,5.13 -1,5.28c0.15,0.15 1.49,-0.19 2.98,-0.75c3.66,-1.39 4.57,-1.3 4.57,0.48c0,0.88 -2.37,2.56 -5.62,4c-8.29,3.67 -8.49,3.55 -6.38,-3.76zm-114.91,-4.14c-0.93,-1.12 -0.22,-2.98 3.47,-9.05l4.64,-7.64l-2.6,-2.41c-1.43,-1.33 -2.6,-2.13 -2.6,-1.78c0,0.36 -1.32,-0.62 -2.94,-2.17c-1.74,-1.67 -3.56,-2.58 -4.47,-2.23c-1.35,0.52 -1.36,1.12 -0.07,5.38c2.07,6.81 1.88,9.9 -0.74,11.73c-1.22,0.86 -2.92,1.56 -3.77,1.56c-2.08,0 -9.01,-5.79 -9.01,-7.51c0,-2.76 2.13,-2.57 4.93,0.43c4.9,5.25 7.49,3.08 4.68,-3.94c-2.12,-5.29 -2.03,-7.56 0.39,-9.98c2.82,-2.82 5.37,-2.49 9.6,1.22c2.01,1.77 6.42,4.82 9.78,6.78c7.28,4.23 8.46,8.34 1.62,5.63c-1.08,-0.43 -2.61,1.38 -5.45,6.43c-4.68,8.33 -5.84,9.5 -7.46,7.55zm128.63,-1.61c-2.85,-2.25 -6.72,-9.55 -6.72,-12.68c0,-3.33 3.78,-7.32 6.94,-7.32c8.27,0 16.03,16.11 9.84,20.44c-3.04,2.13 -7.01,1.96 -10.06,-0.44zm8.67,-3.59c1.37,-3.55 -4.34,-12.41 -7.99,-12.41c-4.89,0 -4.32,6.28 1.06,11.66c3.37,3.37 5.83,3.63 6.93,0.75zm-87.89,-5.92c-37.96,-7.18 -68,-34.54 -79.05,-71.99c-3.61,-12.24 -4.55,-33.98 -2,-46.56c4.39,-21.67 13.29,-38.02 29.16,-53.58c42.12,-41.29 111.94,-37.01 149.02,9.13c14.54,18.11 22.37,40.51 22.37,64.03c0,48.42 -35.37,90.38 -83.5,99.04c-9.76,1.75 -26.55,1.72 -36,-0.07zm37,-6.38c38.89,-8.07 68.27,-38.16 75.01,-76.83c9.12,-52.29 -27.33,-102.93 -79.43,-110.36c-10.21,-1.46 -29.21,-0.68 -37.43,1.53c-32.61,8.77 -58.4,33.79 -68.32,66.25c-2.46,8.06 -2.69,10.23 -2.7,25.8c-0.01,14.51 0.31,18.17 2.2,25c8.45,30.5 32.18,55.83 61.3,65.4c16.19,5.33 33.67,6.46 49.37,3.21zm57.8,0.52c-4.99,-6.24 -6.21,-7.26 -7.71,-6.42c-1.24,0.69 -2.14,0.64 -2.94,-0.18c-0.87,-0.9 -0.43,-1.77 1.85,-3.63l3,-2.45l4.23,4.77c2.33,2.63 5.58,6.64 7.23,8.92c2.49,3.42 2.77,4.34 1.64,5.28c-1.1,0.91 -2.57,-0.36 -7.3,-6.29zm-170.69,-4.19c-2.1,-2.51 -3.55,-4.88 -3.22,-5.25c0.34,-0.38 3.87,-3.94 7.85,-7.91l7.25,-7.22l4.25,4.18c2.34,2.3 4.26,4.73 4.26,5.41c0,2.75 -2.33,2.38 -4.99,-0.79l-2.83,-3.36l-3.09,2.94l-3.1,2.94l2.7,2.82c2.08,2.17 2.43,3.08 1.51,4c-0.92,0.92 -1.88,0.53 -4.2,-1.7c-2.33,-2.23 -3.28,-2.62 -4.2,-1.7c-0.93,0.93 -0.45,1.97 2.11,4.61c3.14,3.24 3.45,5.59 0.74,5.59c-0.67,0 -2.94,-2.05 -5.04,-4.56zm178.16,1.81c-0.84,-0.96 -1.84,-2.76 -2.22,-4c-0.38,-1.24 -1.1,-2.25 -1.62,-2.25c-1.79,0 -4.93,-4.02 -4.93,-6.33c0,-3.04 3.94,-6.67 7.24,-6.67c2.79,0 5.76,2.29 5.76,4.45c0,0.71 1.33,1.57 2.95,1.89c4.29,0.86 6.57,4.74 5.16,8.78c-0.61,1.73 -1.89,3.75 -2.86,4.48c-2.5,1.91 -7.67,1.71 -9.48,-0.35zm8.19,-3.7c1.45,-1.75 0.56,-5.14 -1.57,-5.95c-3.49,-1.34 -7.33,4.13 -4.72,6.73c1.19,1.19 5.05,0.71 6.29,-0.78zm-7.55,-7.84c1.56,-2.48 -1.64,-5.59 -3.86,-3.75c-1.86,1.54 -2.04,4.68 -0.3,5.37c1.81,0.73 2.97,0.28 4.16,-1.62zm-207.92,-74.72c-4.35,-4.81 -0.99,-11.99 5.61,-11.99c4.35,0 6.9,2.67 6.9,7.22c0,6.01 -8.47,9.23 -12.51,4.77zm237.68,-0.3c-4.47,-4.77 -1.69,-11.69 4.7,-11.69c4.67,0 6.93,1.62 7.69,5.52c1.38,6.99 -7.47,11.4 -12.39,6.17zm-8.17,-19.36c0,-0.92 0.7,-2.44 1.55,-3.38c2.28,-2.52 0.15,-10.71 -2.9,-11.14c-1.39,-0.2 -2.27,-1.16 -2.49,-2.69c-0.29,-2.05 0,-2.3 2,-1.82c1.29,0.31 6.61,1.32 11.84,2.25c5.23,0.93 10.08,2.01 10.8,2.39c0.85,0.45 -2.12,3.31 -8.69,8.38c-5.49,4.22 -10.46,7.68 -11.04,7.68c-0.59,0 -1.07,-0.75 -1.07,-1.67zm10.5,-9.74l3,-2.4l-3.8,-0.72c-4.53,-0.85 -5,-0.51 -4.14,2.91c0.81,3.21 1.17,3.23 4.94,0.21zm-236.5,7.02c-7.17,-1.86 -8.55,-2.55 -8.82,-4.41c-0.36,-2.49 -0.01,-2.58 4.76,-1.22c1.89,0.54 3.61,0.8 3.84,0.57c0.23,-0.22 -0.98,-2.43 -2.68,-4.91c-2.91,-4.22 -4.16,-9.64 -2.24,-9.64c0.47,0 2.5,2.47 4.51,5.5c2.01,3.03 3.88,5.5 4.17,5.5c0.28,0 3.24,-1.37 6.57,-3.05c5.35,-2.71 5.89,-3.25 4.72,-4.7c-0.73,-0.91 -4.37,-5.05 -8.08,-9.2c-3.71,-4.15 -6.75,-7.88 -6.75,-8.3c0,-0.41 5.85,-0.75 13,-0.75c10,0 13,0.3 13,1.3c0,1.9 -2.04,3.62 -3.59,3.03c-2.11,-0.81 -6.17,8.23 -4.72,10.54c0.82,1.31 0.83,2.9 0.03,5.87c-0.96,3.61 -1.73,4.37 -6.86,6.83c-3.18,1.51 -5.57,3.09 -5.31,3.51c0.25,0.41 2.26,1.05 4.46,1.42c3.03,0.51 3.99,1.14 3.99,2.59c0,2.49 -2.9,2.39 -14,-0.48zm16,-29.3c0,-0.87 -1.4,-1.31 -4.19,-1.31l-4.18,0l2.91,3.05c2.7,2.81 3.02,2.91 4.19,1.3c0.7,-0.95 1.27,-2.32 1.27,-3.04zm211.29,5.44c-1.13,-1.24 -2.37,-3.26 -2.74,-4.5c-0.81,-2.65 -1.66,-2.76 -5.53,-0.76c-2.71,1.4 -2.93,1.37 -3.55,-0.57c-0.36,-1.14 -0.5,-2.18 -0.31,-2.3c1.69,-1.16 19.23,-8.62 20.26,-8.62c1.51,0 5.58,8.75 5.58,11.98c0,1.16 -1.19,3.22 -2.65,4.57c-3.42,3.17 -8.26,3.26 -11.06,0.2zm8.14,-3.32c0.86,-0.87 1.57,-2.02 1.57,-2.57c0,-0.84 -1.72,-4.69 -2.53,-5.67c-0.52,-0.63 -7.47,2.74 -7.47,3.62c0,1.6 4.09,6.19 5.5,6.19c0.75,0 2.06,-0.71 2.93,-1.57zm-218.36,-14.52c-4.64,-3.27 -8.64,-6.15 -8.89,-6.4c-0.6,-0.6 2.45,-5.33 5.64,-8.76c3.07,-3.3 6.87,-3.57 10.49,-0.72c3.79,2.98 4.14,5.36 1.55,10.54c-2.4,4.81 -2.45,4.62 2.04,7.33c1.65,1 0.77,4.13 -1.12,4.03c-0.7,-0.04 -5.08,-2.74 -9.71,-6.02zm4.89,-5.84c1.61,-3 1.23,-5.9 -0.89,-7.03c-2.68,-1.43 -2.85,-1.39 -5.65,1.64l-2.49,2.69l2.78,2.28c3.44,2.81 4.92,2.91 6.25,0.42zm186.08,5.48c-0.83,-1 -0.89,-1.99 -0.21,-3.22c1.51,-2.68 -4.15,-9.54 -7.24,-8.76c-2.14,0.53 -5.56,-1.93 -4.35,-3.14c0.75,-0.75 21.92,-6.42 24,-6.42c1.43,-0.01 0.71,2.08 -3.98,11.49c-3.14,6.32 -6.01,11.5 -6.37,11.5c-0.35,0 -1.19,-0.65 -1.85,-1.45zm4.9,-12.18c1.18,-1.99 1.97,-3.79 1.76,-4c-0.33,-0.34 -6.68,1.51 -7.53,2.19c-0.34,0.28 2.84,5.44 3.35,5.44c0.15,0 1.25,-1.63 2.42,-3.63zm-183.21,-4.14c-4.25,-4.28 -7.73,-8.23 -7.73,-8.79c0,-1.76 8.76,-9.71 9.91,-9c1.79,1.11 1.26,2.79 -1.92,6.07l-3.01,3.1l3.01,2.88l3.01,2.88l3.01,-2.88c2.32,-2.22 3.27,-2.61 4.19,-1.69c0.92,0.92 0.54,1.87 -1.66,4.16c-2.46,2.57 -2.66,3.19 -1.49,4.6c1.22,1.47 1.68,1.27 4.66,-2.08c2.8,-3.14 3.54,-3.52 4.85,-2.43c1.35,1.12 0.94,1.88 -3.22,6.11c-2.62,2.66 -5.02,4.84 -5.33,4.84c-0.3,0 -4.03,-3.5 -8.28,-7.77zm161.67,-2.52c-1.16,-0.66 -3.58,-2.46 -5.37,-4c-2.92,-2.48 -3.12,-2.97 -1.85,-4.5c0.78,-0.94 4.26,-4.97 7.73,-8.96l6.3,-7.25l3.99,3.16c2.19,1.73 4.47,4.21 5.05,5.5c1.45,3.16 -0.4,7.09 -3.72,7.92c-1.94,0.49 -2.53,1.28 -2.53,3.37c0,5.01 -4.94,7.46 -9.6,4.76zm5.03,-4.28c2.1,-2.11 2,-2.68 -1,-5.49l-2.56,-2.41l-1.88,2.48c-1.84,2.44 -1.84,2.52 0.24,4.74c2.51,2.67 3.13,2.75 5.2,0.68zm6.59,-7.96c1.06,-1.27 0.88,-1.95 -1.05,-4c-2.83,-3.01 -3.58,-3.07 -5.01,-0.39c-0.89,1.67 -0.77,2.47 0.62,4c2.09,2.32 3.75,2.44 5.44,0.39zm-148.9,-4.57c-5.11,-8.03 -5.18,-8.09 -7.55,-6.54c-2.11,1.38 -2.53,1.39 -3.62,0.08c-0.68,-0.82 -1.06,-1.64 -0.84,-1.82c0.21,-0.18 3.3,-2.2 6.85,-4.48c5.67,-3.65 6.57,-3.95 7.38,-2.5c0.69,1.23 0.35,2.08 -1.3,3.33l-2.22,1.68l5.25,8.27c4.21,6.63 4.97,8.44 3.84,9.16c-0.78,0.49 -1.69,0.9 -2.02,0.9c-0.34,0.01 -2.94,-3.63 -5.77,-8.08zm124.13,7.44c-1.86,-0.75 -1.58,-1.79 2.1,-7.57c1.84,-2.9 4.54,-7.17 5.99,-9.49c1.79,-2.85 3.14,-4.03 4.15,-3.64c0.83,0.31 1.51,1.18 1.51,1.93c0,1.43 -11.13,19.33 -12,19.29c-0.27,-0.01 -1.06,-0.24 -1.75,-0.52zm-110.25,-7.23c0,-1.35 0.96,-2.07 3.4,-2.53c7.77,-1.45 6.82,-6.02 -1.43,-6.81c-6.19,-0.59 -9.18,-3.03 -8.77,-7.12c0.35,-3.42 3.77,-6.33 8.55,-7.26c2.8,-0.55 3.25,-0.36 3.25,1.37c0,1.51 -0.87,2.18 -3.46,2.67c-3.9,0.73 -4.83,1.66 -3.94,3.98c0.4,1.03 1.83,1.59 4.04,1.59c11.47,0 15.62,9.71 6.01,14.07c-5.36,2.43 -7.65,2.45 -7.65,0.04zm91.77,-2.36c-1.48,-1.13 -1.31,-1.99 1.77,-9.25c3.99,-9.42 4.09,-10.17 1.46,-11c-1.14,-0.36 -2,-1.51 -2,-2.67c0,-1.53 0.44,-1.88 1.75,-1.4c11.15,4.13 13.27,5.2 12.99,6.57c-0.2,1.03 -1.27,1.41 -3.38,1.21c-2.99,-0.29 -3.16,-0.07 -6.34,8c-3.86,9.79 -4.14,10.18 -6.25,8.54zm-76.76,-3.5c0.01,-2.88 3.65,-23.24 4.26,-23.85c0.31,-0.31 3.83,3.52 7.83,8.52c4,4.99 7.54,9.08 7.88,9.08c0.33,0 2.34,-4.74 4.46,-10.53c2.12,-5.8 4.22,-10.76 4.66,-11.03c0.64,-0.4 11.58,19.54 12.22,22.28c0.1,0.43 -0.79,0.92 -1.98,1.09c-1.47,0.21 -2.38,-0.35 -2.82,-1.75c-0.51,-1.61 -1.5,-2.06 -4.51,-2.06c-4.8,0 -7.01,0.81 -7.01,2.59c0,0.75 -1.24,1.64 -2.75,1.98c-1.51,0.33 -3.2,0.73 -3.75,0.89c-0.55,0.15 -1.78,-0.4 -2.74,-1.24c-2.33,-2.03 -9.59,-0.55 -11.16,2.28c-2.02,3.66 -4.61,4.65 -4.59,1.75zm8.74,-7.88c2.86,-0.77 2.79,-2.12 -0.28,-5.87l-2.46,-3l-0.02,2.5c-0.01,1.38 -0.29,3.51 -0.62,4.75c-0.64,2.38 -0.22,2.58 3.38,1.62zm24.25,-4.05c0,-1.52 -2.45,-7.32 -3.09,-7.32c-0.38,0 -0.97,1.08 -1.3,2.41c-0.33,1.32 -0.88,3.12 -1.21,4c-0.48,1.24 0.06,1.59 2.49,1.59c1.71,0 3.11,-0.31 3.11,-0.68zm34.75,11.99c-0.96,-0.25 -1.75,-1.3 -1.75,-2.34c0,-1.32 -1.12,-2.19 -3.75,-2.92c-5.13,-1.42 -6.33,-1.32 -7.78,0.65c-0.94,1.3 -1.74,1.48 -3.31,0.75c-1.94,-0.89 -1.62,-1.54 5.44,-10.95c4.13,-5.5 7.87,-10.13 8.31,-10.29c0.45,-0.16 1.82,4.57 3.04,10.5c1.23,5.94 2.46,11.8 2.75,13.04c0.52,2.26 0.26,2.4 -2.95,1.56zm-3.12,-10.56c-0.33,-1.24 -0.61,-3.37 -0.62,-4.75l-0.02,-2.5l-2.46,3c-2.93,3.58 -3.15,5.19 -0.78,5.81c3.83,1 4.5,0.74 3.88,-1.56zm-52.23,144.84c-0.3,-0.78 0.11,-2.69 0.9,-4.25c2.6,-5.11 2.99,-7.34 1.29,-7.34c-3.31,0 -3.24,-9.52 0.09,-13.2c1.53,-1.69 1.53,-1.93 0.03,-3.07c-1.23,-0.92 -1.68,-3.14 -1.81,-8.9c-0.11,-4.21 -0.46,-9.25 -0.79,-11.2l-0.61,-3.53l-3.22,3.84c-3.31,3.97 -14.66,25.72 -15.82,30.35c-0.67,2.69 -5.71,5.22 -9.02,4.53c-1.47,-0.3 -4.15,-6.17 -7.71,-16.82c-0.82,-2.48 -3.08,-8.03 -5.02,-12.35c-3.34,-7.44 -3.59,-7.73 -4.76,-5.56c-0.84,1.58 -1.3,9.03 -1.44,23.62c-0.12,11.73 -0.39,21.49 -0.61,21.69c-1.13,1.03 -6.59,1.47 -7.9,0.64c-1.92,-1.23 -2.65,-18.44 -2.13,-50.32c0.41,-25.37 0.08,-24.29 7.62,-24.9l3.87,-0.32l5.9,11.5c3.24,6.32 6.7,13.75 7.69,16.5c2.93,8.13 6.35,14.5 7.81,14.5c0.74,0 2.23,-1.98 3.3,-4.41c1.88,-4.24 15.78,-24.56 21.47,-31.39c2.36,-2.83 3.19,-3.21 5.86,-2.67c7.45,1.49 6.83,-1.18 6.2,26.81c-0.31,13.84 -0.84,29.55 -1.17,34.91c-0.6,9.5 -0.68,9.75 -3.05,9.75c-1.34,0 -2.69,0.68 -3.01,1.5c-0.73,1.9 -3.25,1.95 -3.96,0.09zm58.35,-0.71c-3.25,-2.42 -3.54,-5.66 -0.81,-8.81c1.07,-1.24 6.76,-9.74 12.64,-18.91c5.88,-9.16 11.45,-17.78 12.37,-19.16c3.25,-4.82 9.44,-16.95 8.92,-17.47c-0.29,-0.29 -4.32,-0.47 -8.95,-0.4c-27.12,0.38 -29.19,-0.16 -26.35,-6.96c0.82,-1.96 1.64,-3.71 1.82,-3.89c0.18,-0.18 9.58,-0.4 20.9,-0.48c22.63,-0.17 23.2,-0.04 24.29,5.75c0.81,4.33 -1.54,10.54 -8.04,21.22c-2.77,4.55 -5.72,9.5 -6.54,11c-0.82,1.5 -4.51,7.74 -8.18,13.87c-7.08,11.8 -8.31,14.92 -5.81,14.76c0.83,-0.05 8.31,-0.42 16.61,-0.82l15.1,-0.72l0.64,3.2c1.43,7.15 0.73,7.42 -22.86,8.86c-22.85,1.39 -22.48,1.4 -25.75,-1.04zm-29.13,-15.91c-4.5,-3.95 -6.62,-10.34 -6.61,-19.9c0.02,-12.96 6.37,-22.92 13.86,-21.7c4.42,0.71 6.9,3.03 9.76,9.13c2.87,6.11 3.23,17.61 0.79,24.79c-1.95,5.7 -7.29,10.71 -11.42,10.71c-1.84,0 -4.22,-1.13 -6.38,-3.03zm9.31,-8.06c0.05,-4.27 -0.66,-8.68 -2.01,-12.5c-1.61,-4.6 -1.98,-7.58 -1.65,-13.41c0.39,-6.83 0.31,-7.23 -0.88,-4.5c-1.92,4.43 -1.64,13.13 0.67,20.49c1.19,3.8 2.06,9.41 2.1,13.5c0.07,8.98 1.67,5.75 1.77,-3.58z" fill="#ffffff" id="svg_2"/>
  </g>
 </g>

</svg>